<svg id="圖層_1" data-name="圖層 1" xmlns="http://www.w3.org/2000/svg" viewBox="0 0 335 347"><defs><style>.cls-1{fill:#111043;}</style></defs><title>bell</title><path class="cls-1" d="M144.68,287.06a38.23,38.23,0,0,1-13-19.85,1.75,1.75,0,0,1,1.7-2.21h69.35c1.9,0,2.89,1,2.37,2.85-4.27,15.65-16.6,26.56-36.53,26.56C157.24,294.41,149.92,291.38,144.68,287.06Z"/><path class="cls-1" d="M168.22,254.8c-27.5,0-55,.06-82.51,0-12.28,0-20.32-9.55-18.19-21.14a17.24,17.24,0,0,1,5.9-10C90.3,208.79,97.81,190,97.54,167.71c-.15-12.46-1.07-25,1.21-37.37C103.83,102.76,126,80,153.45,74.46c3.76-.76,5.19-2.07,4.78-5.81a32.57,32.57,0,0,1,.09-6.62c.54-5.63,4.62-9.49,9.9-9.54a10.08,10.08,0,0,1,10.14,9.34,43.29,43.29,0,0,1,.08,8c-.24,2.8.87,3.74,3.53,4.36,30.39,7.06,49,26,55.94,56.31,2.13,9.32,1.18,18.89,1.31,28.36.13,9-.61,18,1.38,26.93a69.12,69.12,0,0,0,22,37.3c7.29,6.52,9,15,4.63,22.57-3.74,6.53-9.55,9.15-17,9.13C222.91,254.74,195.56,254.8,168.22,254.8Z"/></svg>