<svg id="圖層_1" data-name="圖層 1" xmlns="http://www.w3.org/2000/svg" xmlns:xlink="http://www.w3.org/1999/xlink" viewBox="0 0 242.52 230"><defs><style>.cls-1{fill:url(#未命名漸層_28);}.cls-2{fill:url(#未命名漸層_24);}</style><linearGradient id="未命名漸層_28" x1="189.89" y1="100.88" x2="47.05" y2="53.62" gradientUnits="userSpaceOnUse"><stop offset="0" stop-color="#c0feff"/><stop offset="0.47" stop-color="#7dc8ca"/><stop offset="1" stop-color="#348e91"/></linearGradient><linearGradient id="未命名漸層_24" x1="205.86" y1="188.97" x2="125.63" y2="108.74" gradientUnits="userSpaceOnUse"><stop offset="0" stop-color="#9493ae"/><stop offset="0.18" stop-color="#82819f"/><stop offset="0.54" stop-color="#54537a"/><stop offset="1" stop-color="#111043"/></linearGradient></defs><title>任務系統logo</title><path class="cls-1" d="M44.79,44.73A7.73,7.73,0,0,1,52.52,37h62.92a24.93,24.93,0,0,1,17.63,7.3l57,57.87-3.27-2.58c-.17-.13-.35-.27-.53-.39-6.63-4.45-13.58-3.47-20.4-3.54-10.83-.13-25.66-.07-27.55-.07H52.52a7.73,7.73,0,0,1-7.73-7.72Z"/><path class="cls-2" d="M142.55,97.52h27.32a31.33,31.33,0,0,1,31.33,31.33v61.82a8.33,8.33,0,0,1-8.33,8.33h-42a8.33,8.33,0,0,1-8.33-8.33V97.52a0,0,0,0,1,0,0Z"/></svg>