<svg xmlns="http://www.w3.org/2000/svg" viewBox="0 0 204.75 177.37"><defs><style>.cls-1{fill:#111043;}</style></defs><title>復原</title><g id="圖層_2" data-name="圖層 2"><g id="圖層_1-2" data-name="圖層 1"><path class="cls-1" d="M31.85,48.31C40.34,55.37,47.7,61.68,55.28,67.7c3,2.37,3.49,4.18.79,7.19-8.46,9.47-5.28,9-14.61,1.38C28.62,65.81,16,55.1,3.27,44.48c-4.32-3.6-4.33-3.68-.21-7.13C17.37,25.39,31.75,13.51,46,1.47c2.57-2.17,4.07-1.92,6.17.61,7,8.42,7.08,8.36-1.2,15.35-5.82,4.91-11.66,9.78-17.48,14.68-.2.17-.25.5-.42.84,1.55.81,3.2.37,4.77.37,31.79,0,63.58,0,95.37,0,36.8.08,68.69,29.1,71.32,64.79,2.85,38.85-22.51,72-59.75,78.27a61.59,61.59,0,0,1-10.23.86c-39.41,0-78.81-.06-118.22.09-4.42,0-6-1.1-5.87-5.74.43-10.67-1.11-9.27,9.38-9.29,36.87-.05,73.73,0,110.6,0,17.4,0,32.57-5.72,44.26-19,15.07-17.06,19-36.86,11-57.93S161.7,51.8,138.81,49c-10.57-1.3-21.17-.57-31.75-.62C82.45,48.22,57.84,48.31,31.85,48.31Z"/></g></g></svg>