<svg id="圖層_1" data-name="圖層 1" xmlns="http://www.w3.org/2000/svg" xmlns:xlink="http://www.w3.org/1999/xlink" viewBox="0 0 335 347"><defs><style>.cls-1,.cls-2{fill:none;}.cls-2{stroke:#111043;stroke-miterlimit:10;stroke-width:5px;}.cls-3{clip-path:url(#clip-path);}.cls-4{fill:#111043;}</style><clipPath id="clip-path"><circle class="cls-1" cx="167" cy="184" r="139"/></clipPath></defs><title>user</title><circle class="cls-2" cx="167" cy="184" r="139"/><g class="cls-3"><path class="cls-4" d="M167.18,326.88q-40.2,0-80.42,0c-9.61,0-11.5-1.72-11.45-11.42.07-13.79-1.27-27.7,1.67-41.33,6.39-29.67,32.08-53.88,63.15-56,23.87-1.61,47.85-3.74,71.24,3.69,25.38,8.07,46,34.92,47.17,61.4.46,10.43.51,20.87.49,31.31,0,10.82-1.58,12.31-12.27,12.32Q207,326.93,167.18,326.88Z"/><circle class="cls-4" cx="167.05" cy="160.79" r="50.79"/></g></svg>